#!OML:ASF Y:\EmotionMaleHayes\Project 1\Capture day 1\Session 1\Male1.ASF
:FULLY-SPECIFIED
:DEGREES
1120
root 26.3295 17.4128 0.383436 822.787 84.1177 814.569
lowerback 8.71677 -0.54102 -3.59221
upperback 8.18153 -0.522485 -0.640315
thorax 3.67112 -0.258146 1.38478
lowerneck -26.0752 2.83394 3.29384
upperneck 24.3913 3.24659 -1.57359
head 12.5022 1.56378 -0.553626
rclavicle 6.16232e-015 5.96354e-015
rhumerus 52.4019 12.3674 -30.2362
rradius 42.0277
rwrist -4.49904
rhand -1.50227 -31.5927
rfingers 7.12502
rthumb 24.1507 -60.0924
lclavicle 6.16232e-015 5.96354e-015
lhumerus 45.3907 -14.9352 27.1609
lradius 41.266
lwrist 9.8313
lhand -13.4423 -21.6706
lfingers 7.12502
lthumb 12.6668 7.92526
rfemur -9.04148 -11.2155 6.13382
rtibia 9.18251
rfoot -7.83708 5.45104
rtoes 2.81513
lfemur 3.31242 -1.88422 -12.3644
ltibia 29.544
lfoot -7.93898 -1.67241
ltoes -10.0918
1121
root 26.3091 17.4502 0.442945 823.474 86.5113 814.997
lowerback 9.85218 -0.318788 -1.90887
upperback 7.89318 -0.194222 0.202328
thorax 2.70684 -0.0322252 1.30129
lowerneck -25.7811 2.89822 3.4127
upperneck 24.2308 3.33805 -1.70768
head 12.3899 1.59894 -0.611153
rclavicle 1.11319e-014 3.93594e-014
rhumerus 52.5301 12.2324 -30.5094
rradius 42.0259
rwrist -4.57863
rhand -1.69795 -31.7859
rfingers 7.12502
rthumb 23.9631 -60.3104
lclavicle 1.11319e-014 3.93594e-014
lhumerus 45.2654 -14.7339 27.2658
lradius 41.1621
lwrist 10.1981
lhand -13.3864 -21.5981
lfingers 7.12502
lthumb 12.7207 7.99447
rfemur -9.55025 -5.96136 9.5973
rtibia 8.55175
rfoot -8.60179 0.804319
rtoes 2.0855
lfemur 1.76305 -1.14731 -8.32783
ltibia 29.9912
lfoot -8.51635 -1.21336
ltoes -9.7746
1122
root 26.3847 17.4575 0.434537 829.321 86.1079 820.721
lowerback 9.67558 -0.440915 -2.00941
upperback 7.983 -0.352007 0.208299
thorax 2.90575 -0.115847 1.3745
lowerneck -25.6376 2.93288 3.31457
upperneck 24.0953 3.38005 -1.54896
head 12.3047 1.63091 -0.528835
rclavicle 7.95139e-016 3.18055e-015
rhumerus 52.6427 12.0407 -30.855
rradius 42.1003
rwrist -4.44979
rhand -1.6909 -31.9884
rfingers 7.12502
rthumb 23.9698 -60.5121
lclavicle 7.95139e-016 3.18055e-015
lhumerus 45.1497 -14.5789 27.2003
lradius 41.0341
lwrist 10.2655
lhand -13.5606 -21.5521
lfingers 7.12502
lthumb 12.5528 8.05082
rfemur -9.02846 -6.74802 9.09065
rtibia 8.20629
rfoot -8.68778 1.09735
rtoes 2.11493
lfemur 1.12946 -1.43066 -8.57759
ltibia 29.4129
lfoot -8.90402 -0.78585
ltoes -8.93645
1123
root 26.4521 17.4665 0.438872 832.892 85.9711 824.203
lowerback 9.70529 -0.450145 -2.04125
upperback 7.98613 -0.366415 0.311187
thorax 2.89489 -0.126403 1.50024
lowerneck -25.5523 2.96267 3.40044
upperneck 24.1715 3.44822 -1.72254
head 12.3259 1.64673 -0.597298
rclavicle -8.54774e-015 -2.10712e-014
rhumerus 52.7078 11.9672 -31.0337
rradius 42.0978
rwrist -4.38163
rhand -1.69792 -32.0073
rfingers 7.12502
rthumb 23.9631 -60.5318
lclavicle -8.54774e-015 -2.10712e-014
lhumerus 45.0992 -14.58 27.2337
lradius 40.8198
lwrist 10.0623
lhand -13.609 -21.6572
lfingers 7.12502
lthumb 12.5061 7.9486
rfemur -8.69632 -6.54613 8.97751
rtibia 7.95867
rfoot -8.89574 0.63483
rtoes 2.68057
lfemur 0.479285 -1.51973 -8.35134
ltibia 28.8874
lfoot -9.19265 -0.43343
ltoes -7.81254
1124
root 26.5194 17.4752 0.44745 837.507 86.1463 828.823
lowerback 9.8553 -0.396318 -1.78903
upperback 8.00045 -0.279645 0.539354
thorax 2.823 -0.0758093 1.59003
lowerneck -25.5484 2.91956 3.41066
upperneck 24.3328 3.45598 -1.93459
head 12.3939 1.62321 -0.677873
rclavicle -9.54166e-015 -2.14687e-014
rhumerus 52.6682 11.9097 -30.9817
rradius 42.0936
rwrist -4.40834
rhand -1.82384 -31.8953
rfingers 7.12502
rthumb 23.8423 -60.4356
lclavicle -9.54166e-015 -2.14687e-014
lhumerus 45.1751 -14.5708 27.4778
lradius 40.5645
lwrist 9.61234
lhand -13.3691 -21.6859
lfingers 7.12502
lthumb 12.7374 7.9056
rfemur -8.32296 -5.85495 9.3153
rtibia 7.69697
rfoot -9.12934 -0.196617
rtoes 3.6961
lfemur -0.10354 -1.54826 -7.64808
ltibia 28.3853
lfoot -9.63754 -0.280326
ltoes -7.42072
1125
root 26.5894 17.4822 0.442192 842.92 86.1244 834.223
lowerback 9.89438 -0.377426 -1.46961
upperback 8.06949 -0.227587 0.699518
thorax 2.86998 -0.0379616 1.57356
lowerneck -25.5456 2.8223 3.20154
upperneck 24.3471 3.37675 -1.84496
head 12.3902 1.58122 -0.623375
rclavicle -1.59028e-015 -1.07344e-014
rhumerus 52.5221 11.7745 -30.8235
rradius 42.1993
rwrist -4.39628
rhand -1.98416 -31.7919
rfingers 7.12502
rthumb 23.6886 -60.3522
lclavicle -1.59028e-015 -1.07344e-014
lhumerus 45.306 -14.5536 27.6773
lradius 40.4112
lwrist 9.22221
lhand -12.9191 -21.6908
lfingers 7.12502
lthumb 13.1712 7.87319
rfemur -7.89991 -5.91398 9.41706
rtibia 7.49274
rfoot -9.23506 -0.465647
rtoes 4.23447
lfemur -0.69143 -1.72067 -7.26465
ltibia 27.6954
lfoot -9.91134 -0.0733491
ltoes -8.79489
